<svg width="38" height="40" viewBox="0 0 38 40" fill="none" xmlns="http://www.w3.org/2000/svg">
<path d="M19.3115 1.23535C23.7876 0.105041 28.5081 0.122883 32.9805 1.2832H32.9814C33.1786 1.33626 33.3301 1.52738 33.3301 1.75977V3.04883H35.4385C36.6155 3.04898 37.5995 4.05024 37.5996 5.31641V35.5537C37.5995 36.8198 36.6155 37.8211 35.4385 37.8213H23.043L22.9238 37.9512C21.9518 39.0088 20.6232 39.5995 19.2139 39.5996C17.8084 39.5996 16.475 39.0088 15.5029 37.9512L15.3838 37.8213H2.56152C1.38454 37.8211 0.400545 36.8198 0.400391 35.5537V5.31641C0.400506 4.05024 1.38452 3.04898 2.56152 3.04883H5.09668V1.75977C5.09668 1.53173 5.24792 1.33926 5.44629 1.28418C9.91555 0.122757 14.6377 0.104703 19.1152 1.23535L19.2139 1.26074L19.3115 1.23535ZM2.56152 4.02734C1.856 4.0275 1.30773 4.62202 1.30762 5.31641V35.5537C1.30777 36.2538 1.8573 36.8426 2.56152 36.8428H15.5928C15.7175 36.8428 15.847 36.9031 15.9365 37.0156H15.9375C16.7455 38.0332 17.9397 38.6211 19.2139 38.6211C20.4118 38.621 21.5364 38.1049 22.335 37.2012L22.4902 37.0156C22.579 36.9039 22.7087 36.8428 22.8389 36.8428H35.4385C36.1427 36.8426 36.6922 36.2538 36.6924 35.5537V5.31641C36.6923 4.62202 36.144 4.0275 35.4385 4.02734H33.3301V33.3301C33.3301 33.4903 33.2615 33.632 33.1504 33.7217L33.1455 33.7256C33.0728 33.7861 32.9768 33.8193 32.876 33.8193C32.843 33.8193 32.8087 33.8151 32.7725 33.8057H32.7715C28.3721 32.6637 23.7175 32.6636 19.3223 33.8057C19.2858 33.8152 19.252 33.8181 19.2246 33.8184L19.1865 33.8105H19.1455C19.1331 33.8105 19.1248 33.8093 19.1172 33.8076L19.1094 33.8057L18.2803 33.6045C14.4023 32.7302 10.3621 32.7302 6.4873 33.6045L5.65918 33.8057C5.52663 33.8402 5.38759 33.8115 5.27637 33.7217C5.16535 33.6319 5.09668 33.4902 5.09668 33.3301V4.02734H2.56152ZM9.78223 13.8613C11.5071 13.6949 13.2575 13.6948 14.9824 13.8613H14.9834C15.1902 13.8811 15.3696 14.0552 15.3945 14.2891V14.3945C15.3725 14.6599 15.1649 14.8369 14.9434 14.8369C14.9425 14.8368 14.9415 14.836 14.9404 14.8359C14.9344 14.8354 14.9204 14.8349 14.9033 14.834H14.9043C13.2313 14.676 11.5324 14.676 9.85938 14.834C9.62625 14.8561 9.39391 14.6763 9.36914 14.3926C9.34446 14.108 9.54469 13.8837 9.78125 13.8613H9.78223ZM23.4443 13.8613C24.9537 13.7156 26.4829 13.6974 27.9971 13.8066L28.6455 13.8613C28.8821 13.8837 29.0823 14.108 29.0576 14.3926C29.0325 14.6808 28.8017 14.8585 28.5713 14.835L28.5674 14.834C27.1036 14.6958 25.6201 14.6786 24.1514 14.7822L23.5225 14.834C23.5062 14.8349 23.4933 14.8354 23.4873 14.8359C23.4716 14.8373 23.476 14.8369 23.4834 14.8369C23.2649 14.8369 23.0542 14.6586 23.0322 14.3945V14.3926L23.0332 14.2891C23.0546 14.0885 23.189 13.932 23.3574 13.8789L23.4443 13.8613ZM9.78223 9.41406C11.5071 9.2476 13.2576 9.24757 14.9824 9.41406H14.9834C15.1904 9.43385 15.3697 9.60877 15.3945 9.84277V9.94824C15.3724 10.2134 15.1648 10.3906 14.9434 10.3906C14.9507 10.3906 14.9556 10.391 14.9404 10.3896C14.9344 10.3891 14.9204 10.3886 14.9033 10.3877H14.9043C13.4405 10.2495 11.957 10.2323 10.4883 10.3359L9.85938 10.3877H9.77051C9.57326 10.3655 9.39109 10.1977 9.36914 9.94629C9.3443 9.6616 9.54461 9.43647 9.78125 9.41406H9.78223ZM23.4443 9.41406C24.9537 9.26838 26.4829 9.25012 27.9971 9.35938L28.6455 9.41406C28.8822 9.43647 29.0825 9.66159 29.0576 9.94629C29.0356 10.1986 28.8562 10.3657 28.6572 10.3877H28.5674C27.1036 10.2495 25.6201 10.2323 24.1514 10.3359L23.5225 10.3877C23.5062 10.3886 23.4933 10.3891 23.4873 10.3896C23.4716 10.391 23.476 10.3906 23.4834 10.3906C23.2649 10.3906 23.0543 10.2122 23.0322 9.94824V9.94629L23.0332 9.84277C23.0545 9.64203 23.1889 9.48467 23.3574 9.43164L23.4443 9.41406ZM9.78223 4.96777C11.5071 4.80131 13.2576 4.80128 14.9824 4.96777H14.9834C15.1904 4.98759 15.3698 5.16235 15.3945 5.39648V5.50098C15.3725 5.76634 15.1649 5.94336 14.9434 5.94336C14.9425 5.94329 14.9415 5.94345 14.9404 5.94336C14.9344 5.94284 14.9204 5.94232 14.9033 5.94141H14.9043C13.2313 5.78344 11.5324 5.78342 9.85938 5.94141C9.62634 5.96345 9.39403 5.78353 9.36914 5.5C9.34429 5.21531 9.5446 4.99018 9.78125 4.96777H9.78223ZM23.4443 4.96777C24.9537 4.82209 26.4829 4.80383 27.9971 4.91309L28.6455 4.96777C28.8822 4.99018 29.0825 5.21531 29.0576 5.5C29.0355 5.75213 28.8561 5.91944 28.6572 5.94141H28.5674C27.1036 5.80318 25.6201 5.786 24.1514 5.88965L23.5225 5.94141C23.5062 5.9423 23.4933 5.94284 23.4873 5.94336C23.486 5.94348 23.4845 5.94327 23.4834 5.94336C23.2649 5.94336 23.0542 5.76506 23.0322 5.50098V5.5L23.0332 5.39648C23.0544 5.19563 23.1888 5.03844 23.3574 4.98535L23.4443 4.96777ZM18.7598 2.14453L18.4502 2.07227C14.467 1.14692 10.2977 1.14699 6.31445 2.07227L6.00488 2.14453V32.7109L6.49023 32.6045C8.42993 32.1795 10.4036 31.9697 12.3818 31.9697C14.3602 31.9697 16.3382 32.1795 18.2734 32.6045L18.7598 32.7109V2.14453ZM32.4229 2.14453L32.1133 2.07227C28.1299 1.14688 23.9599 1.14688 19.9766 2.07227L19.667 2.14453V32.7109L20.1533 32.6045C22.093 32.1795 24.0667 31.9697 26.0449 31.9697C28.0233 31.9697 30.0012 32.1795 31.9365 32.6045L32.4229 32.7109V2.14453Z" stroke="#FBEDBC" stroke-width="0.8"/>
</svg>
