<?xml version="1.0" encoding="UTF-8" standalone="no"?>
<!-- Created with Inkscape (http://www.inkscape.org/) -->

<svg
   version="1.1"
   id="svg2"
   width="689.64142"
   height="703.68201"
   viewBox="0 0 689.64142 703.68201"
   sodipodi:docname="googleIcon.png"
   xmlns:inkscape="http://www.inkscape.org/namespaces/inkscape"
   xmlns:sodipodi="http://sodipodi.sourceforge.net/DTD/sodipodi-0.dtd"
   xmlns="http://www.w3.org/2000/svg"
   xmlns:svg="http://www.w3.org/2000/svg">
  <defs
     id="defs6" />
  <sodipodi:namedview
     id="namedview4"
     pagecolor="#ffffff"
     bordercolor="#111111"
     borderopacity="1"
     inkscape:showpageshadow="0"
     inkscape:pageopacity="0"
     inkscape:pagecheckerboard="1"
     inkscape:deskcolor="#d1d1d1"
     showgrid="false" />
  <g
     inkscape:groupmode="layer"
     inkscape:label="Image"
     id="g8"
     transform="translate(-46.613583,-32.159027)">
    <g
       id="g295"
       transform="translate(14.56044,0.03172443)">
      <path
         style="fill:#f9bb02"
         d="m 362.5,735.4102 c -2.2,-0.21878 -9.175,-0.88574 -15.5,-1.48214 C 279.94161,727.60497 211.3397,698.36864 157.5344,653.18281 144.04506,641.85443 121.75567,619.06574 110.89493,605.49858 36.541147,512.61635 13.154273,392.56766 47.678857,281 79.09506,179.47721 155.82334,96.068658 253.59328,57.157846 350.83831,18.455939 463.7732,24.972 551.75414,74.360982 577.30958,88.706781 618,119.1205 618,123.87591 c 0,0.89742 -22.22293,23.8512 -49.3843,51.0084 -35.61046,35.60502 -49.7652,49.1469 -50.75,48.55268 -0.75113,-0.45323 -4.39437,-3.41943 -8.09608,-6.59154 -25.86179,-22.1618 -61.87094,-37.9881 -97.76962,-42.97052 -15.04924,-2.08869 -44.98565,-1.62716 -60,0.92504 -33.54537,5.70218 -63.72001,18.6405 -90.80055,38.93359 -10.34362,7.7511 -29.83182,26.769 -38.16795,37.24687 -22.57968,28.38088 -37.15007,60.62253 -44.29622,98.01957 -1.87477,9.81103 -2.19752,14.95136 -2.19752,35 0,20.08428 0.32129,25.18425 2.21044,35.08755 8.7596,45.91957 28.81605,84.53024 60.22503,115.93922 50.62655,50.62655 119.71446,70.91595 192.02677,56.39349 61.45316,-12.34163 109.64604,-49.3239 132.07721,-101.35347 4.5069,-10.45384 8.92441,-24.85554 9.22255,-30.06679 l 0.20024,-3.5 -94,-0.5 -94,-0.5 V 388 320.5 h 165.48726 165.48726 l 1.22314,6.74876 c 5.96473,32.91078 6.65249,80.35981 1.72366,118.91732 -9.82812,76.8839 -42.47254,145.82632 -92.95073,196.30451 C 574.41286,693.52832 507.75918,724.42112 429,733.53123 c -12.72533,1.47195 -57.78911,2.74523 -66.5,1.87897 z"
         id="path303" />
      <path
         style="fill:#3f85f2"
         d="m 362.5,735.4102 c -2.2,-0.21878 -9.175,-0.88574 -15.5,-1.48214 C 298.82824,729.38583 247.57105,712.29512 204.11515,686.2859 160.55778,660.21594 122.12843,624.06435 93.790142,582.5 81.062534,563.83216 69.11213,542.3947 70.673342,541.03151 c 1.912364,-1.66982 100.495268,-78.15462 107.621638,-83.49745 4.38037,-3.28408 8.14251,-5.44765 8.58833,-4.93908 0.43634,0.49776 2.27363,4.73002 4.08286,9.40502 15.3337,39.6218 44.60162,75.8458 80.64621,99.8133 32.18378,21.40029 67.21681,32.61305 105.88762,33.89064 76.48741,2.52696 144.04342,-31.19013 176.93321,-88.30707 8.57852,-14.89758 17.33644,-38.13083 17.86655,-47.39687 l 0.20024,-3.5 -94,-0.5 -94,-0.5 V 388 320.5 h 165.48726 165.48726 l 1.22314,6.74876 c 5.96473,32.91078 6.65249,80.35981 1.72366,118.91732 -9.82812,76.8839 -42.47254,145.82632 -92.95073,196.30451 C 574.41286,693.52832 507.75918,724.42112 429,733.53123 c -12.72533,1.47195 -57.78911,2.74523 -66.5,1.87897 z M 130,272.92568 C 99.475,249.24243 73.509294,228.93759 72.29843,227.8038 l -2.20157,-2.06143 2.523582,-4.98005 c 1.387969,-2.73903 5.481205,-9.99356 9.096079,-16.12118 C 128.75342,124.90822 207.99053,65.353595 296.63105,43.111366 384.17914,21.143254 477.26371,32.545033 551.75414,74.360982 577.30958,88.706781 618,119.1205 618,123.87591 c 0,0.89742 -22.22293,23.8512 -49.3843,51.0084 -35.61046,35.60502 -49.7652,49.1469 -50.75,48.55268 -0.75113,-0.45323 -4.39437,-3.41943 -8.09608,-6.59154 -20.67195,-17.71446 -47.03733,-31.15245 -75.18324,-38.31963 -18.58674,-4.73301 -29.34814,-5.97796 -51.08638,-5.91002 -21.43157,0.067 -36.16408,2.05765 -54.7524,7.39822 -33.49042,9.62205 -61.09685,25.77765 -87.09064,50.96641 -22.6588,21.95706 -38.36926,44.99767 -49.65744,72.82652 -2.58662,6.3768 -5.10717,11.72581 -5.60123,11.88668 C 185.90423,315.8545 160.525,296.60892 130,272.92568 Z"
         id="path301" />
      <path
         style="fill:#ea4031"
         d="M 363,735.33703 C 255.8023,727.86772 162.30314,676.51064 99.659669,590.68984 85.556946,571.36928 68.778876,542.70578 70.622259,541.08259 c 1.851242,-1.63011 100.272961,-78.00073 107.653701,-83.53422 4.27678,-3.20637 8.04314,-5.56261 8.36967,-5.23607 0.32654,0.32654 2.27777,4.77736 4.33606,9.8907 29.79176,74.01065 96.0781,124.94626 172.94316,132.89265 14.02482,1.4499 42.83555,0.65458 56.07515,-1.54795 28.79671,-4.7906 51.33995,-12.56873 72.47007,-25.00447 5.3255,-3.13422 10.30674,-5.45912 11.06943,-5.16645 C 505.88101,564.2753 616,650.08366 616,651.00972 c 0,1.38413 -16.1328,14.76757 -28.32107,23.49458 C 538.15756,709.96243 480.17894,729.9249 412,734.99185 c -12.39494,0.92117 -38.13157,1.10247 -49,0.34518 z M 130,272.92568 C 99.475,249.24243 73.509294,228.93759 72.29843,227.8038 l -2.20157,-2.06143 2.523582,-4.98005 c 1.387969,-2.73903 5.481205,-9.99356 9.096079,-16.12118 C 128.75342,124.90822 207.99053,65.353595 296.63105,43.111366 384.17914,21.143254 477.26371,32.545033 551.75414,74.360982 577.30958,88.706781 618,119.1205 618,123.87591 c 0,0.89742 -22.22293,23.8512 -49.3843,51.0084 -35.61046,35.60502 -49.7652,49.1469 -50.75,48.55268 -0.75113,-0.45323 -4.39437,-3.41943 -8.09608,-6.59154 -20.67195,-17.71446 -47.03733,-31.15245 -75.18324,-38.31963 -18.58674,-4.73301 -29.34814,-5.97796 -51.08638,-5.91002 -21.43157,0.067 -36.16408,2.05765 -54.7524,7.39822 -33.49042,9.62205 -61.09685,25.77765 -87.09064,50.96641 -22.6588,21.95706 -38.36926,44.99767 -49.65744,72.82652 -2.58662,6.3768 -5.10717,11.72581 -5.60123,11.88668 C 185.90423,315.8545 160.525,296.60892 130,272.92568 Z"
         id="path299" />
      <path
         style="fill:#30a951"
         d="M 363,735.33703 C 255.8023,727.86772 162.30314,676.51064 99.659669,590.68984 85.556946,571.36928 68.778876,542.70578 70.622259,541.08259 c 1.851242,-1.63011 100.272961,-78.00073 107.653701,-83.53422 4.27678,-3.20637 8.04314,-5.56261 8.36967,-5.23607 0.32654,0.32654 2.27777,4.77736 4.33606,9.8907 29.79176,74.01065 96.0781,124.94626 172.94316,132.89265 14.02482,1.4499 42.83555,0.65458 56.07515,-1.54795 28.79671,-4.7906 51.33995,-12.56873 72.47007,-25.00447 5.3255,-3.13422 10.30674,-5.45912 11.06943,-5.16645 C 505.88101,564.2753 616,650.08366 616,651.00972 c 0,1.38413 -16.1328,14.76757 -28.32107,23.49458 C 538.15756,709.96243 480.17894,729.9249 412,734.99185 c -12.39494,0.92117 -38.13157,1.10247 -49,0.34518 z"
         id="path297" />
    </g>
  </g>
</svg>
