<svg width="40" height="27" viewBox="0 0 40 27" fill="none" xmlns="http://www.w3.org/2000/svg">
<g clip-path="url(#clip0_120_1146)">
<path fill-rule="evenodd" clip-rule="evenodd" d="M20 5.78571C20 5.10493 20.1448 3.85714 20.3676 3.85714H0V7.71429H20.3676C20.1448 7.71429 20 6.4665 20 5.78571ZM35.6324 3.85714C34.8057 1.92857 32.6076 0 30 0C26.6857 0 24 2.59007 24 5.78571C24 8.98136 26.6857 11.5714 30 11.5714C32.6095 11.5714 34.8057 9.64286 35.6324 7.71429H40V3.85714H35.6324ZM20 21.2143C20 21.8951 19.8552 22.5373 19.6324 23.1429H40V19.2857H19.6324C19.8552 19.2857 20 20.5335 20 21.2143ZM16 21.2143C16 24.4099 13.3143 27 10 27C7.39048 27 5.19429 25.0714 4.36762 23.1429H0V19.2857H4.36762C5.19429 17.3571 7.39238 15.4286 10 15.4286C13.3143 15.4286 16 18.0186 16 21.2143Z" fill="#FDF4D9"/>
</g>
<defs>
<clipPath id="clip0_120_1146">
<rect width="40" height="27" fill="white"/>
</clipPath>
</defs>
</svg>
