<svg width="30" height="40" viewBox="0 0 30 40" fill="none" xmlns="http://www.w3.org/2000/svg">
<path d="M1.875 0.5H19.375C19.8012 0.5 20.3 0.621798 20.8789 0.897461C21.4572 1.17285 21.8922 1.49246 22.2021 1.84668L28.2959 8.81152C28.6077 9.1679 28.8931 9.67337 29.1396 10.3496C29.3853 11.0234 29.5 11.6195 29.5 12.1426V37.8574C29.4999 38.3412 29.3556 38.7276 29.0771 39.0459C28.8007 39.3618 28.4917 39.5 28.125 39.5H1.875C1.50834 39.5 1.19927 39.3618 0.922852 39.0459C0.644375 38.7276 0.500055 38.3412 0.5 37.8574V2.14258C0.500056 1.65876 0.644376 1.27239 0.922852 0.954102C1.19927 0.63819 1.50834 0.5 1.875 0.5ZM2 37.6426H28V13.7861H19.375C19.0083 13.7861 18.6993 13.647 18.4229 13.3311C18.1445 13.0128 18 12.6264 18 12.1426V2.35742H2V37.6426ZM8.125 29.0713H21.875C21.9037 29.0713 21.9161 29.0764 21.9199 29.0781C21.9235 29.0797 21.9331 29.0843 21.9482 29.1016C21.9723 29.1292 22 29.1772 22 29.2861V30.7139C22 30.8228 21.9723 30.8708 21.9482 30.8984C21.9331 30.9157 21.9235 30.9203 21.9199 30.9219C21.9161 30.9236 21.9037 30.9287 21.875 30.9287H8.125C8.09633 30.9287 8.08391 30.9236 8.08008 30.9219C8.07653 30.9203 8.06687 30.9157 8.05176 30.8984C8.02766 30.8708 8 30.8228 8 30.7139V29.2861C8 29.1772 8.02766 29.1292 8.05176 29.1016C8.06687 29.0843 8.07653 29.0797 8.08008 29.0781C8.08391 29.0764 8.09633 29.0713 8.125 29.0713ZM8.125 23.3574H21.875C21.9037 23.3574 21.9161 23.3625 21.9199 23.3643C21.9236 23.3659 21.9333 23.3707 21.9482 23.3877C21.9723 23.4153 22 23.4628 22 23.5713V25C22 25.1091 21.9724 25.157 21.9482 25.1846C21.9331 25.2018 21.9234 25.2064 21.9199 25.208C21.9159 25.2098 21.9034 25.2139 21.875 25.2139H8.125C8.09664 25.2139 8.08405 25.2098 8.08008 25.208C8.07656 25.2064 8.06686 25.2018 8.05176 25.1846C8.02763 25.157 8 25.1091 8 25V23.5713C8.00002 23.4628 8.02772 23.4153 8.05176 23.3877C8.06665 23.3707 8.07642 23.3659 8.08008 23.3643C8.08391 23.3625 8.09633 23.3574 8.125 23.3574ZM8.125 17.6426H21.875C21.9036 17.6426 21.9161 17.6477 21.9199 17.6494C21.9234 17.651 21.9331 17.6555 21.9482 17.6729C21.9724 17.7004 22 17.7484 22 17.8574V19.2861C21.9999 19.3946 21.9723 19.4422 21.9482 19.4697C21.9332 19.4869 21.9235 19.4916 21.9199 19.4932C21.9161 19.4949 21.9037 19.5 21.875 19.5H8.125C8.09633 19.5 8.08391 19.4949 8.08008 19.4932C8.07649 19.4916 8.06679 19.4869 8.05176 19.4697C8.0277 19.4422 8.00007 19.3946 8 19.2861V17.8574C8 17.7484 8.02764 17.7004 8.05176 17.6729C8.06691 17.6555 8.07655 17.651 8.08008 17.6494C8.08394 17.6477 8.09638 17.6426 8.125 17.6426ZM19.5 11.9287H28.0166L27.8223 11.2842C27.6867 10.835 27.5186 10.4458 27.29 10.1846L21.1768 3.19727C20.943 2.93031 20.5894 2.73024 20.1836 2.57031L19.5 2.30078V11.9287Z" stroke="#FBEDBC"/>
</svg>
